<svg width="77" height="17" viewBox="0 0 77 17" fill="none" xmlns="http://www.w3.org/2000/svg">
<path d="M6.19318 16.206C5.04261 16.206 4.0554 15.9692 3.23153 15.4957C2.41241 15.0223 1.78267 14.3641 1.34233 13.5213C0.901989 12.6738 0.681818 11.6937 0.681818 10.581C0.681818 9.46354 0.901989 8.48343 1.34233 7.64062C1.78741 6.79309 2.41951 6.13258 3.23864 5.65909C4.0625 5.18561 5.04498 4.94886 6.18608 4.94886C7.1946 4.94886 8.07292 5.13116 8.82102 5.49574C9.57386 5.86032 10.161 6.37642 10.5824 7.04403C11.0085 7.70691 11.2334 8.4858 11.2571 9.38068H8.01136C7.94508 8.82197 7.75568 8.384 7.44318 8.06676C7.13542 7.74953 6.73295 7.59091 6.2358 7.59091C5.83333 7.59091 5.48059 7.70455 5.17756 7.93182C4.87453 8.15436 4.63778 8.4858 4.46733 8.92614C4.30161 9.36174 4.21875 9.90151 4.21875 10.5455C4.21875 11.1894 4.30161 11.7339 4.46733 12.179C4.63778 12.6193 4.87453 12.9531 5.17756 13.1804C5.48059 13.4029 5.83333 13.5142 6.2358 13.5142C6.55777 13.5142 6.84186 13.4455 7.08807 13.3082C7.33902 13.1709 7.54498 12.9697 7.70597 12.7045C7.86695 12.4347 7.96875 12.108 8.01136 11.7244H11.2571C11.224 12.6241 10.9991 13.41 10.5824 14.0824C10.1705 14.7547 9.59044 15.2779 8.84233 15.652C8.09896 16.0213 7.21591 16.206 6.19318 16.206ZM16.5075 1.45455V16H13.0344V1.45455H16.5075ZM23.8175 16.206C22.6764 16.206 21.6915 15.9811 20.8629 15.5312C20.0391 15.0767 19.4046 14.4304 18.9595 13.5923C18.5192 12.7495 18.299 11.7481 18.299 10.5881C18.299 9.46117 18.5215 8.47633 18.9666 7.63352C19.4117 6.78598 20.0391 6.12784 20.8487 5.65909C21.6584 5.18561 22.6125 4.94886 23.7109 4.94886C24.4875 4.94886 25.1977 5.0696 25.8416 5.31108C26.4856 5.55256 27.0419 5.91004 27.5107 6.38352C27.9794 6.85701 28.344 7.44176 28.6044 8.13778C28.8648 8.82907 28.995 9.62216 28.995 10.517V11.3835H19.5135V9.36648H25.7635C25.7588 8.99716 25.6712 8.66809 25.5007 8.37926C25.3303 8.09044 25.0959 7.86553 24.7976 7.70455C24.504 7.53883 24.1655 7.45597 23.782 7.45597C23.3937 7.45597 23.0457 7.54356 22.7379 7.71875C22.4302 7.8892 22.1863 8.12358 22.0064 8.42188C21.8265 8.71544 21.7318 9.04924 21.7223 9.4233V11.4759C21.7223 11.9209 21.8099 12.3116 21.9851 12.6477C22.1603 12.9792 22.4089 13.2372 22.7308 13.4219C23.0528 13.6065 23.4363 13.6989 23.8814 13.6989C24.1892 13.6989 24.4685 13.6562 24.7195 13.571C24.9704 13.4858 25.1858 13.3603 25.3658 13.1946C25.5457 13.0289 25.6806 12.8253 25.7706 12.5838L28.9595 12.6761C28.8269 13.3911 28.5357 14.0137 28.0859 14.544C27.6409 15.0696 27.0561 15.4792 26.3317 15.7727C25.6072 16.0616 24.7692 16.206 23.8175 16.206ZM33.8441 16.1847C33.1481 16.1847 32.5302 16.0687 31.9904 15.8366C31.4554 15.5999 31.0316 15.2448 30.7191 14.7713C30.4113 14.2931 30.2575 13.6941 30.2575 12.9744C30.2575 12.3684 30.364 11.857 30.5771 11.4403C30.7901 11.0237 31.0837 10.6851 31.4577 10.4247C31.8318 10.1643 32.2627 9.9678 32.7504 9.83523C33.238 9.69792 33.7589 9.60559 34.3129 9.55824C34.9331 9.50142 35.4326 9.44223 35.8114 9.38068C36.1902 9.31439 36.4648 9.22206 36.6353 9.10369C36.8105 8.98059 36.8981 8.80776 36.8981 8.58523V8.54972C36.8981 8.18513 36.7726 7.90341 36.5217 7.70455C36.2707 7.50568 35.9322 7.40625 35.506 7.40625C35.0468 7.40625 34.6774 7.50568 34.3981 7.70455C34.1187 7.90341 33.9412 8.17803 33.8654 8.52841L30.6623 8.41477C30.757 7.75189 31.0008 7.16004 31.3938 6.6392C31.7915 6.11364 32.3361 5.7017 33.0273 5.40341C33.7234 5.10038 34.5591 4.94886 35.5344 4.94886C36.2305 4.94886 36.872 5.03172 37.4592 5.19744C38.0463 5.35843 38.5576 5.59517 38.9933 5.90767C39.4289 6.21544 39.765 6.59422 40.0018 7.04403C40.2433 7.49384 40.364 8.00758 40.364 8.58523V16H37.0969V14.4801H37.0117C36.8176 14.8494 36.569 15.1619 36.266 15.4176C35.9677 15.6733 35.6149 15.8651 35.2077 15.9929C34.8053 16.1207 34.3507 16.1847 33.8441 16.1847ZM34.9165 13.9119C35.2906 13.9119 35.6268 13.8362 35.9251 13.6847C36.2281 13.5331 36.4696 13.3248 36.6495 13.0597C36.8294 12.7898 36.9194 12.4773 36.9194 12.1222V11.0852C36.82 11.1373 36.6992 11.1847 36.5572 11.2273C36.4199 11.2699 36.2683 11.3101 36.1026 11.348C35.9369 11.3859 35.7665 11.419 35.5913 11.4474C35.4161 11.4759 35.248 11.5019 35.087 11.5256C34.7603 11.5777 34.4809 11.6581 34.2489 11.767C34.0217 11.8759 33.8465 12.018 33.7234 12.1932C33.605 12.3636 33.5458 12.5672 33.5458 12.804C33.5458 13.1638 33.6737 13.4384 33.9293 13.6278C34.1897 13.8172 34.5188 13.9119 34.9165 13.9119ZM45.9606 9.77841V16H42.4876V5.09091H45.7901V7.09375H45.9109C46.1523 6.42614 46.5643 5.90294 47.1467 5.52415C47.729 5.14062 48.4227 4.94886 49.2276 4.94886C49.9947 4.94886 50.6599 5.12169 51.2234 5.46733C51.7915 5.80824 52.2319 6.28646 52.5444 6.90199C52.8616 7.51278 53.0179 8.22775 53.0131 9.04688V16H49.5401V9.72869C49.5449 9.12263 49.391 8.64915 49.0785 8.30824C48.7707 7.96733 48.3422 7.79688 47.793 7.79688C47.4284 7.79688 47.1064 7.87737 46.8271 8.03835C46.5524 8.1946 46.3394 8.41951 46.1879 8.71307C46.0411 9.00663 45.9653 9.36174 45.9606 9.77841Z" fill="#3B416F"/>
<path d="M57.1165 16.206C56.6051 16.206 56.1671 16.026 55.8026 15.6662C55.4427 15.3063 55.2652 14.8707 55.2699 14.3594C55.2652 13.8575 55.4427 13.429 55.8026 13.0739C56.1671 12.714 56.6051 12.5341 57.1165 12.5341C57.5994 12.5341 58.0256 12.714 58.3949 13.0739C58.7689 13.429 58.9583 13.8575 58.9631 14.3594C58.9583 14.7003 58.8684 15.0104 58.6932 15.2898C58.5227 15.5691 58.2978 15.7917 58.0185 15.9574C57.7438 16.1231 57.4432 16.206 57.1165 16.206Z" fill="#5A67D8"/>
<path d="M64.3324 16.1847C63.6364 16.1847 63.0185 16.0687 62.4787 15.8366C61.9437 15.5999 61.5199 15.2448 61.2074 14.7713C60.8996 14.2931 60.7457 13.6941 60.7457 12.9744C60.7457 12.3684 60.8523 11.857 61.0653 11.4403C61.2784 11.0237 61.572 10.6851 61.946 10.4247C62.3201 10.1643 62.7509 9.9678 63.2386 9.83523C63.7263 9.69792 64.2472 9.60559 64.8011 9.55824C65.4214 9.50142 65.9209 9.44223 66.2997 9.38068C66.6785 9.31439 66.9531 9.22206 67.1236 9.10369C67.2988 8.98059 67.3864 8.80776 67.3864 8.58523V8.54972C67.3864 8.18513 67.2609 7.90341 67.0099 7.70455C66.759 7.50568 66.4205 7.40625 65.9943 7.40625C65.535 7.40625 65.1657 7.50568 64.8864 7.70455C64.607 7.90341 64.4295 8.17803 64.3537 8.52841L61.1506 8.41477C61.2453 7.75189 61.4891 7.16004 61.8821 6.6392C62.2798 6.11364 62.8243 5.7017 63.5156 5.40341C64.2116 5.10038 65.0473 4.94886 66.0227 4.94886C66.7188 4.94886 67.3603 5.03172 67.9474 5.19744C68.5346 5.35843 69.0459 5.59517 69.4815 5.90767C69.9171 6.21544 70.2533 6.59422 70.4901 7.04403C70.7315 7.49384 70.8523 8.00758 70.8523 8.58523V16H67.5852V14.4801H67.5C67.3059 14.8494 67.0573 15.1619 66.7543 15.4176C66.456 15.6733 66.1032 15.8651 65.696 15.9929C65.2936 16.1207 64.839 16.1847 64.3324 16.1847ZM65.4048 13.9119C65.7789 13.9119 66.1151 13.8362 66.4134 13.6847C66.7164 13.5331 66.9579 13.3248 67.1378 13.0597C67.3177 12.7898 67.4077 12.4773 67.4077 12.1222V11.0852C67.3082 11.1373 67.1875 11.1847 67.0455 11.2273C66.9081 11.2699 66.7566 11.3101 66.5909 11.348C66.4252 11.3859 66.2547 11.419 66.0795 11.4474C65.9044 11.4759 65.7363 11.5019 65.5753 11.5256C65.2486 11.5777 64.9692 11.6581 64.7372 11.767C64.5099 11.8759 64.3348 12.018 64.2116 12.1932C64.0933 12.3636 64.0341 12.5672 64.0341 12.804C64.0341 13.1638 64.1619 13.4384 64.4176 13.6278C64.678 13.8172 65.0071 13.9119 65.4048 13.9119ZM72.9759 16V5.09091H76.4489V16H72.9759ZM74.7159 3.8196C74.2282 3.8196 73.8092 3.65862 73.4588 3.33665C73.1084 3.00994 72.9332 2.61695 72.9332 2.15767C72.9332 1.70312 73.1084 1.31487 73.4588 0.992898C73.8092 0.666193 74.2282 0.50284 74.7159 0.50284C75.2083 0.50284 75.6274 0.666193 75.973 0.992898C76.3234 1.31487 76.4986 1.70312 76.4986 2.15767C76.4986 2.61695 76.3234 3.00994 75.973 3.33665C75.6274 3.65862 75.2083 3.8196 74.7159 3.8196Z" fill="#3B416F"/>
</svg>
